<svg xmlns:xlink="http://www.w3.org/1999/xlink" xmlns="http://www.w3.org/2000/svg" class="css-ze2te4 css-qd6ojx" viewBox="0 0 58.333333333333336 59.276476802960346" width="110"  height="110" ><g transform="translate(-4.270162438276394, -3.2622148554184007) scale(0.6609477466714673)" class="css-ewx2gf" fill="#0EA47A"><path xmlns="http://www.w3.org/2000/svg" d="M84.9101868,14.5989904H65.8755951c1.9585724-2.310792,1.8735962-5.7610359-0.3061981-7.9408331  c-2.2948494-2.2966599-6.0175896-2.2966599-8.3140678,0c-0.2795334,0.2795634-0.5203552,0.5803251-0.7324905,0.8952188  c-2.6824226-0.290072-5.4639244,0.5520611-7.5216064,2.6115541c-1.2651901,1.2633801-2.061306,2.8097658-2.4381638,4.4340601  H6.4606657c0,0,0.5413713,58.3814697,10.3471365,80.0207291l77.9099655-4.6145172  C84.9119949,68.3624954,84.9101868,14.5989904,84.9101868,14.5989904z M52.1559677,14.9811029  c0.2157898-0.6509857,0.5661926-1.2668228,1.0845566-1.7833719l2.3232918-2.3251047  c-0.0815315,1.4579687,0.3839226,2.9266281,1.3853149,4.1084766c0.1043625,0.1239281,0.1893349,0.2583656,0.3061981,0.3752279  c1.3871269,1.3871269,3.2909851,1.9214325,5.0884895,1.6348019l-2.6380081,2.6717072  c-0.3132629,0.311451-0.6705513,0.5520611-1.0387154,0.7537155c-1.3675575,0.7502728-3.0201149,0.7502728-4.3878593,0  c-0.3681602-0.2016544-0.7254486-0.4422646-1.0387115-0.7537155C51.9737015,18.3923931,51.6251068,16.5735092,52.1559677,14.9811029  z M12.0127993,20.0344429h34.9164696c0.2141266,0.5520611,0.4848137,1.0863667,0.8103943,1.59585l-3.821846,5.7787914  c0,0-0.5680046,2.2258167,2.2629585,1.9993401l5.0870399-4.5648746c3.4819527,1.8188839,7.8665504,1.3092194,10.7964401-1.6206703  c0.9377975-0.9377975,1.6190414-2.0277863,2.0701828-3.1884365h15.4058838  c0.2529297,12.7852707,1.4951096,44.9026375,7.5656052,64.9777527l-66.7027817,3.9492188  C14.0176029,70.7334442,12.4021587,33.9415932,12.0127993,20.0344429z" fill="#FFFFFF"></path><polygon xmlns="http://www.w3.org/2000/svg" points="69.387619,39.6883125 23.1862774,39.6883125 23.2393627,45.1237679 69.4407043,45.1237679 " fill="#FFFFFF"></polygon><polygon xmlns="http://www.w3.org/2000/svg" points="24.7734299,52.1199188 24.8265152,57.5553703 71.0278549,57.5553703 70.9747696,52.1199188 " fill="#FFFFFF"></polygon><polygon xmlns="http://www.w3.org/2000/svg" points="27.4416924,65.6306381 27.5371761,71.0660934 53.6563339,71.0660934 53.5608521,65.6306381 " fill="#FFFFFF"></polygon></g></svg>