<svg version="1.1" id="Layer_1" xmlns="http://www.w3.org/2000/svg" xmlns:xlink="http://www.w3.org/1999/xlink" x="0px" y="0px" viewBox="0 0 500 500" style="width: 166px;" xml:space="preserve" data-imageid="chatting-1-47" imageName="Chatting 1" class="illustrations_image">
<style type="text/css">
	.st0_chatting-1-47{fill:#70CC40;}
	.st1_chatting-1-47{fill:#093F68;}
	.st2_chatting-1-47{fill:#F56132;}
	.st3_chatting-1-47{fill:#FFFFFF;}
	.st4_chatting-1-47{fill:#DFEAEF;}
	.st5_chatting-1-47{fill:#FFBC0E;}
	.st6_chatting-1-47{fill:#725858;}
	.st7_chatting-1-47{fill:#68E1FD;}
	.st8_chatting-1-47{fill:#FFC9B0;}
</style>
<g id="plant_chatting-1-47">
	<path class="st0_chatting-1-47" d="M317.5,339c4.8-8.5,11-16.3,14.2-25.5c0.4-0.9,0.6-1.9,0.5-3c-0.4-2.2-3-3.5-5.2-3.1s-4.1,1.9-5.7,3.5&#10;&#9;&#9;c-10.2,9.8-17,22.7-19.4,36.7l0.1-12.8c0-2.5-0.4-5.7-2.8-6.3c-2.8-0.8-4.8,2.7-5.5,5.5c-1.6,6.4-2.3,13-2.1,19.6&#10;&#9;&#9;c-0.4-3.9-1-8.1-3.6-11s-8.3-3.3-10.1,0.1c-1.1,2-0.5,4.5,0.1,6.7c3.7,14.1,7.8,28.2,12.1,42.1c1.3,4.4,2.8,8.9,6.1,12&#10;&#9;&#9;c4.1,3.9,11.4,4.7,11.4-2.2s-1.8-13.9-1.6-21C306.4,365.9,310.4,351.7,317.5,339z"/>
	<path class="st1_chatting-1-47" d="M302.9,408.6c-3.1-0.1-6-1.4-8.2-3.5c-3.5-3.4-5.1-7.8-6.7-12.9c-4.3-13.9-8.4-28.1-12.1-42.2&#10;&#9;&#9;c-0.7-2.7-1.3-5.6,0.1-8.2c1.1-2,3-3.3,5.3-3.5c3-0.4,6,0.7,8.1,2.9c0.2,0.3,0.5,0.5,0.7,0.8c0.4-2.9,0.9-5.7,1.6-8.5&#10;&#9;&#9;c0.3-1.1,1.4-4.8,4.1-6.5c1.2-0.7,2.6-0.9,3.9-0.5c1.8,0.5,3.8,2,4.2,6.2c3.6-8.8,9-16.8,15.9-23.3c1.9-1.8,4-3.5,6.8-4&#10;&#9;&#9;c1.9-0.3,3.7,0.1,5.3,1.2c1.2,0.8,2,2.1,2.3,3.6c0.2,1.4,0,2.7-0.6,4c-2.2,6.4-5.9,12.2-9.5,17.8c-1.7,2.6-3.4,5.3-4.9,8l0,0&#10;&#9;&#9;c-6.9,12.4-10.8,26.3-11.3,40.5c0,3.7,0.2,7.4,0.8,11c0.5,3.3,0.7,6.6,0.8,9.9c0,4.4-2.4,6-3.8,6.6&#10;&#9;&#9;C304.9,408.5,303.9,408.7,302.9,408.6z M282.5,342.3c-0.2,0-0.4,0-0.6,0c-0.9,0.1-1.7,0.6-2.2,1.4c-0.7,1.3-0.3,3.2,0.2,5.2&#10;&#9;&#9;c3.7,14,7.8,28.2,12,42.1c1.4,4.5,2.8,8.5,5.6,11.1c2,1.9,5,2.9,6.6,2.2c0.3-0.1,1.3-0.6,1.3-2.9c-0.1-3.1-0.3-6.3-0.8-9.4&#10;&#9;&#9;c-0.6-3.9-0.8-7.8-0.8-11.7c0.5-14.9,4.6-29.4,11.9-42.3l0,0c1.6-2.8,3.3-5.5,5-8.2c3.6-5.6,7-11,9-16.9c0.3-0.6,0.4-1.3,0.4-2&#10;&#9;&#9;c-0.1-0.4-0.3-0.7-0.6-0.9c-0.6-0.5-1.4-0.6-2.2-0.5c-1.7,0.3-3.2,1.6-4.6,2.9c-9.9,9.5-16.5,21.9-18.8,35.5&#10;&#9;&#9;c-0.1,1.1-1.1,1.9-2.2,1.8c-1.1-0.1-1.9-1.1-1.9-2.2l0.1-12.8c0-2.4-0.5-4.1-1.3-4.3c-0.2-0.1-0.5,0-0.7,0.1c-1.2,1-2,2.4-2.2,3.9&#10;&#9;&#9;c-1.5,6.2-2.2,12.6-2.1,19c0.1,1.1-0.8,2.1-1.9,2.2c-1.1,0.1-2.1-0.8-2.2-1.9c-0.4-4-1-7.5-3.1-9.9&#10;&#9;&#9;C285.4,342.9,283.9,342.3,282.5,342.3L282.5,342.3z M317.5,339L317.5,339z"/>
	<path class="st0_chatting-1-47" d="M315.8,371.5c2.4-13.1,8.1-26,17.7-35.3c1-1.1,2.3-2,3.7-2.5c1.5-0.5,3.1,0.1,3.9,1.4c0.4,1.1,0.4,2.4,0,3.5&#10;&#9;&#9;c-2.1,8.2-5.1,16.2-8.8,23.9c4.7-7.9,11.7-14.3,20-18.2c2.7-1.3,5.7-2.3,8.7-1.9s5.9,2.5,6.3,5.5c0.4,3.1-2,5.9-4.2,8.2&#10;&#9;&#9;c-8,7.9-16.8,15-26.3,21.1c5.1-3.3,10.9-5.6,16.9-6.5c1.7-0.4,3.6-0.3,5.2,0.4c1.6,0.8,2.6,2.9,1.7,4.4c-0.5,0.7-1.2,1.2-1.9,1.5&#10;&#9;&#9;c-8.5,4.5-19,5.9-25.6,12.9c-5.1,5.4-6.8,13.2-10.5,19.7c-0.9,1.5-2,3-3.6,3.6c-5.8,2-4.6-14.5-4.7-17.7&#10;&#9;&#9;C313.9,387.5,314.5,379.5,315.8,371.5z"/>
	<path class="st1_chatting-1-47" d="M318,415.5c-0.9,0-1.7-0.3-2.4-0.8c-3.3-2.4-3.5-9.8-3.4-17.1c0-0.9,0-1.6,0-2c-0.3-8.2,0.2-16.4,1.6-24.4l0,0&#10;&#9;&#9;c1.9-10.4,6.6-25.1,18.3-36.4c1.3-1.4,2.8-2.4,4.6-3c2.4-0.8,5.1,0.3,6.3,2.5c0.6,1.6,0.7,3.3,0.1,4.9c-0.9,3.8-2.1,7.5-3.4,11.1&#10;&#9;&#9;c3.5-3.2,7.4-5.8,11.7-7.8c2.6-1.2,6.1-2.6,9.8-2.1s7.5,3.1,8,7.3c0.5,4-2.1,7.2-4.8,9.9c-4.1,4-8.4,7.9-12.8,11.4&#10;&#9;&#9;c0.5-0.1,1.1-0.2,1.7-0.3c2.2-0.5,4.4-0.3,6.5,0.6c1.4,0.8,2.5,2.1,3,3.6c0.4,1.2,0.2,2.6-0.5,3.7c-0.7,1-1.6,1.8-2.7,2.3&#10;&#9;&#9;c-3.1,1.5-6.3,2.9-9.6,4c-5.9,2.2-11.5,4.2-15.4,8.4c-3,3.2-4.7,7.2-6.6,11.6c-1.1,2.6-2.3,5.2-3.7,7.7c-1,1.7-2.4,3.7-4.7,4.5&#10;&#9;&#9;C319.1,415.4,318.6,415.5,318,415.5z M318,411.4c0.1,0,0.2,0,0.3,0c1-0.4,1.9-1.6,2.5-2.7c1.3-2.4,2.4-4.8,3.4-7.3&#10;&#9;&#9;c1.9-4.5,3.9-9.1,7.3-12.8c4.6-4.9,10.9-7.2,17-9.5c3.1-1.1,6.2-2.3,9.2-3.8c0.4-0.2,0.8-0.5,1.1-0.8c0.1-0.2,0.1-0.3,0-0.5&#10;&#9;&#9;c-0.1-0.5-0.4-0.9-0.9-1.1c-1.3-0.5-2.7-0.5-4-0.2c-5.6,0.9-11,2.9-15.7,6l-0.4,0.2c-0.9,0.6-2.2,0.3-2.8-0.6s-0.3-2.2,0.6-2.8l0,0&#10;&#9;&#9;l0.4-0.3c9.2-6,17.8-12.9,25.6-20.6c2-1.9,3.9-4.2,3.6-6.5c-0.3-2-2.5-3.5-4.5-3.8c-2.7-0.4-5.4,0.7-7.5,1.7&#10;&#9;&#9;c-8,3.8-14.6,9.8-19.1,17.4c-0.5,1-1.8,1.4-2.8,0.8c-1-0.5-1.4-1.8-0.8-2.8c3.7-7.5,6.6-15.4,8.7-23.5c0.2-0.7,0.3-1.4,0.2-2.1&#10;&#9;&#9;c-0.4-0.4-1-0.6-1.6-0.4c-1.1,0.4-2.1,1.1-2.8,2c-10.8,10.5-15.3,24.4-17.1,34.2c-1.4,7.8-1.9,15.7-1.5,23.5c0,0.5,0,1.2,0,2.2&#10;&#9;&#9;C316.1,409.4,317.4,411.2,318,411.4L318,411.4z M318,411.4L318,411.4z"/>
	<rect x="282.4" y="398.1" class="st2_chatting-1-47" width="52.9" height="23.7"/>
	<path class="st1_chatting-1-47" d="M335.3,423.9h-52.9c-1.1,0-2-0.9-2-2v-23.7c0-1.1,0.9-2,2-2h52.9c1.1,0,2,0.9,2,2v23.7&#10;&#9;&#9;C337.4,422.9,336.5,423.9,335.3,423.9C335.4,423.9,335.4,423.9,335.3,423.9z M284.5,419.8h48.8v-19.6h-48.8V419.8z"/>
</g>
<g id="speech-bubble-2_chatting-1-47">
	<path class="st3_chatting-1-47" d="M394.8,147.7h-70.3c-3.6,0-6.6,2.9-6.6,6.6v46.6c0,3.6,2.9,6.6,6.6,6.6l0,0l-11.3,17.7l28.6-17.7h53&#10;&#9;&#9;c3.6,0,6.6-2.9,6.6-6.6v0v-46.6C401.4,150.6,398.5,147.7,394.8,147.7C394.8,147.7,394.8,147.7,394.8,147.7z"/>
	<path class="st1_chatting-1-47" d="M313.2,227.1c-1.1,0-2-0.8-2.1-1.9c0-0.4,0.1-0.8,0.3-1.2l9.7-15.2c-3.2-1.3-5.3-4.5-5.3-8v-46.5&#10;&#9;&#9;c0-4.7,3.9-8.6,8.6-8.6h70.3c4.7,0,8.6,3.9,8.6,8.6v46.6c0,4.8-3.8,8.6-8.6,8.6h-52.4l-28.1,17.4C314,227,313.6,227.1,313.2,227.1z&#10;&#9;&#9; M324.5,149.7c-2.5,0-4.5,2-4.5,4.5v46.6c0,2.5,2,4.5,4.5,4.5c0.7,0,1.4,0.4,1.8,1.1c0.4,0.6,0.3,1.4-0.1,2.1l-6.5,10.2l21.1-13&#10;&#9;&#9;c0.3-0.2,0.7-0.3,1.1-0.3h53c2.5,0,4.5-2,4.5-4.5v-46.6c0-2.5-2-4.5-4.5-4.5L324.5,149.7z"/>
	<path class="st4_chatting-1-47" d="M388.4,164.9h-55.1c-1.1,0-2-0.9-2-2c0-1.1,0.9-2,2-2h55.1c1.1,0,2,0.9,2,2C390.4,164,389.5,164.9,388.4,164.9&#10;&#9;&#9;z"/>
	<path class="st4_chatting-1-47" d="M388.4,178.2h-55.1c-1.1,0-2-0.9-2-2s0.9-2,2-2h55.1c1.1,0,2,0.9,2,2S389.5,178.2,388.4,178.2z"/>
	<path class="st4_chatting-1-47" d="M376.9,191.6h-43.6c-1.1,0-2-0.9-2-2s0.9-2,2-2h43.6c1.1,0,2,0.9,2,2S378,191.6,376.9,191.6z"/>
</g>
<g id="speech-bubble-1_chatting-1-47">
	<path class="st3_chatting-1-47" d="M342.8,254.8v3.9c-3.6,0.7-7.5,1.5-7.5,1.5l7.5,5.8v20.1c0,3,2.4,5.4,5.4,5.4h58c3,0,5.4-2.4,5.4-5.4v0v-31.4&#10;&#9;&#9;c0-3-2.4-5.4-5.4-5.4h-58C345.2,249.3,342.8,251.8,342.8,254.8z"/>
	<path class="st1_chatting-1-47" d="M406.2,293.6h-58c-4.1,0-7.5-3.3-7.5-7.5V267l-6.7-5.2c-0.6-0.5-0.9-1.3-0.7-2.1c0.2-0.8,0.8-1.4,1.6-1.5&#10;&#9;&#9;c0,0,2.8-0.6,5.9-1.2v-2.2c0-4.1,3.3-7.5,7.5-7.5h58c4.1,0,7.5,3.3,7.5,7.5v31.4C413.6,290.3,410.3,293.6,406.2,293.6z&#10;&#9;&#9; M340.1,261.3l4,3.1c0.5,0.4,0.8,1,0.8,1.6v20.1c0,1.9,1.5,3.4,3.4,3.4h58c1.9,0,3.4-1.5,3.4-3.4l0,0v-31.4c0-1.9-1.5-3.4-3.4-3.4&#10;&#9;&#9;c0,0,0,0,0,0h-58c-1.9,0-3.4,1.5-3.4,3.4v0v3.9c0,1-0.7,1.8-1.6,2L340.1,261.3z M342.8,258.6L342.8,258.6z"/>
	<path class="st4_chatting-1-47" d="M399.6,264.6h-42.4c-1.1,0-2-0.9-2-2c0-1.1,0.9-2,2-2h42.5c1.1,0,2,0.9,2,2&#10;&#9;&#9;C401.6,263.7,400.7,264.6,399.6,264.6L399.6,264.6z"/>
	<path class="st4_chatting-1-47" d="M390.4,277.8h-33.3c-1.1,0-2-0.9-2-2s0.9-2,2-2h33.3c1.1,0,2,0.9,2,2S391.5,277.8,390.4,277.8z"/>
</g>
<g id="character_chatting-1-47">
	<path class="st5_chatting-1-47" d="M114.2,423.5c0.1-2.3-39.8-118.6-20.7-144.8s101.7-12.9,112.9-11.2s71,155.6,71,155.6L114.2,423.5z"/>
	<path class="st1_chatting-1-47" d="M114.2,425.5c-0.6,0-1.1-0.2-1.5-0.6c-0.3-0.3-0.5-0.8-0.6-1.2c-0.1-0.7-1.1-3.7-2.1-7.2&#10;&#9;&#9;c-8.7-28.6-35.1-115.8-18.2-138.9s78.8-17.6,114.1-12.1l0.7,0.1c2.4,0.4,8.1,1.2,41.3,79.7c16.2,38.3,31.2,76.8,31.3,77.2&#10;&#9;&#9;c0.4,1-0.1,2.2-1.1,2.6c-0.3,0.1-0.5,0.2-0.8,0.2L114.2,425.5L114.2,425.5z M150.3,264.6c-28.5,0-47.8,5.2-55.2,15.3&#10;&#9;&#9;c-10.4,14.3-4.1,59.8,18.8,135.4c1,3.2,1.5,5.1,1.9,6.2l158.6-0.4c-28.1-72-61.3-148.9-68.5-151.6l-0.6-0.1&#10;&#9;&#9;C184.6,266.2,166.1,264.6,150.3,264.6z"/>
	<path class="st5_chatting-1-47" d="M214.2,355.6c0,0,39.4-9.1,60,13.5s22.8,54.4,22.8,54.4h-74.7"/>
	<path class="st1_chatting-1-47" d="M297,425.5h-74.7c-1.1,0-2-0.9-2-2s0.9-2,2-2h72.5c-0.9-7.5-5.2-32.6-22.1-51c-19.6-21.4-57.7-13-58.1-12.9&#10;&#9;&#9;c-1.1,0.3-2.2-0.4-2.5-1.5c-0.3-1.1,0.4-2.2,1.5-2.5c7.5-1.5,15.2-2.1,22.8-1.8c16.8,0.8,30.4,6.2,39.2,15.8&#10;&#9;&#9;c20.9,22.8,23.3,54.3,23.4,55.6c0,0.6-0.2,1.1-0.5,1.5C298.1,425.3,297.6,425.5,297,425.5z"/>
	<polygon class="st1_chatting-1-47" points="148.2,377.4 148.2,423.5 282.4,423.5 253.7,377.4 &#9;"/>
	<path class="st1_chatting-1-47" d="M282.4,425.5H148.2c-1.1,0-2-0.9-2-2v-46.1c0-1.1,0.9-2,2-2h105.5c0.7,0,1.4,0.4,1.7,1l28.7,46.1&#10;&#9;&#9;c0.6,0.9,0.4,2.2-0.6,2.8C283.3,425.5,282.8,425.7,282.4,425.5L282.4,425.5z M150.3,421.5h128.5l-26.2-42H150.3L150.3,421.5z"/>
	<path class="st6_chatting-1-47" d="M124.2,224.8l-0.5,1.6c-4,12-8.8,24.2-8.5,36.8c0.5,20.4,14.7,38.8,32.6,48.7s39,12.3,59.4,11.8&#10;&#9;&#9;c15.1-0.4,30.5-2.3,44.2-8.6s25.9-17.3,30.8-31.6c7.2-20.7-1.4-43.5,1.5-65.2c4.6-35.2,21.7-80-0.9-112.4&#10;&#9;&#9;c-7.3-10.5-18.4-18-30.3-22.8c-36.7-15-107.4-5.5-115.9,42.6c-2.8,16,0.4,32.9-0.4,49.1C135.4,191.7,129.5,208.8,124.2,224.8z"/>
	<path class="st1_chatting-1-47" d="M202.4,325.8c-22.5,0-40.7-4-55.5-12.1c-20-11-33.2-30.8-33.6-50.4c-0.3-11.4,3.4-22.4,7-33&#10;&#9;&#9;c0.5-1.5,1-3,1.5-4.5l1.2-3.8c5.1-15.4,10.4-31.4,11.2-47.3c0.2-6.5,0.1-13-0.3-19.6c-0.5-9.8-1-20,0.8-29.8&#10;&#9;&#9;c2.9-16.4,13.1-29.8,29.5-38.8c24.9-13.7,63.2-15.9,89.2-5.3c13.5,5.6,24.3,13.7,31.2,23.5c18.1,25.9,11.4,59.7,5.6,89.5&#10;&#9;&#9;c-1.7,8.6-3.3,16.6-4.3,24.4c-1.2,8.9-0.3,18.3,0.5,27.3c1.1,12.8,2.3,26-2,38.3c-4.8,13.8-16.4,25.7-31.9,32.7&#10;&#9;&#9;c-12.1,5.5-26.5,8.3-45,8.8C205.6,325.7,204,325.8,202.4,325.8z M215.1,78.5c-16.5,0-34.2,3.4-48.9,11.5&#10;&#9;&#9;c-15.3,8.4-24.8,20.9-27.5,36c-1.6,9.3-1.2,19.3-0.7,28.9c0.4,6.7,0.5,13.3,0.3,20c-0.9,16.5-6.2,32.7-11.4,48.4l-0.7,2.2l0,0&#10;&#9;&#9;l-0.5,1.6c-0.5,1.5-1,3-1.5,4.5c-3.5,10.3-7.1,20.9-6.8,31.6c0.4,18.2,12.8,36.6,31.5,46.9c15.2,8.4,34.3,12.1,58.4,11.5&#10;&#9;&#9;c18-0.4,31.8-3.1,43.4-8.4c14.5-6.6,25.3-17.6,29.8-30.4c4-11.6,3-23.7,1.8-36.6c-0.8-9.3-1.6-18.9-0.4-28.2c1-7.8,2.6-16,4.3-24.6&#10;&#9;&#9;c5.7-29,12.2-61.8-4.9-86.4c-6.4-9.2-16.6-16.9-29.4-22.1C242.1,80.9,229,78.5,215.1,78.5z M124.2,224.8L124.2,224.8z"/>
	<path class="st7_chatting-1-47 targetColor" d="M285.1,293.1l-8.9,16.9c0,0-8.3-19-13.3-31.1c-1.6-3.8,2.7-23.7-45.5-23.7h-33.3c-19.8,0-35.8,16-35.9,35.8&#10;&#9;&#9;v86.4h105.5v-25.7c0,0,11.8,5.7,22.5,3.7c20-3.8,35.7-43.6,37.3-60.2L285.1,293.1z" style="fill: rgb(104, 225, 253);"/>
	<path class="st1_chatting-1-47" d="M253.7,379.5H148.2c-1.1,0-2-0.9-2-2V291c0-20.9,17-37.9,37.9-37.9h33.3c38.9,0,45.6,12.5,47.1,23.3&#10;&#9;&#9;c0.1,0.6,0.2,1.1,0.3,1.7c3.5,8.6,8.9,21,11.6,27.2l7-13.1c0.4-0.7,1.1-1.1,2-1.1l28.3,2.1c0.5,0,1.1,0.3,1.4,0.7&#10;&#9;&#9;c0.4,0.4,0.5,1,0.5,1.5c-1.6,16.1-17.1,57.8-38.9,62c-8.1,1.5-16.5-1-20.8-2.6v22.6c0,1.1-0.9,2-2,2&#10;&#9;&#9;C253.8,379.5,253.7,379.5,253.7,379.5z M150.3,375.4h101.4v-23.7c0-1.1,0.8-2,1.9-2.1c0.3,0,0.7,0.1,1,0.2&#10;&#9;&#9;c0.1,0.1,11.3,5.4,21.2,3.5c17.9-3.4,32.8-39.6,35.4-56.3l-24.9-1.8l-8.3,15.6c-0.5,1-1.7,1.4-2.7,0.9c-0.5-0.2-0.8-0.6-1-1.1&#10;&#9;&#9;c-0.1-0.2-8.4-19.2-13.3-31.1c-0.3-0.9-0.5-1.8-0.6-2.7c-0.8-5.9-2.8-19.8-43.1-19.8h-33.3c-18.7,0-33.8,15.1-33.8,33.8V375.4z"/>
	<path class="st8_chatting-1-47" d="M207.5,243.9h22.4l0,0v17.8c0,2.6-2.1,4.7-4.7,4.7c0,0,0,0,0,0h-13c-2.6,0-4.7-2.1-4.7-4.7l0,0L207.5,243.9&#10;&#9;&#9;L207.5,243.9L207.5,243.9z"/>
	<path class="st1_chatting-1-47" d="M220.3,268.4H217c-6.4,0-11.5-5.2-11.6-11.5v-12.9c0-1.1,0.9-2,2-2h22.4c1.1,0,2,0.9,2,2v12.9&#10;&#9;&#9;C231.8,263.2,226.7,268.4,220.3,268.4z M209.5,246v10.9c0,4.1,3.3,7.5,7.5,7.5h3.3c4.1,0,7.5-3.3,7.5-7.5V246H209.5z"/>
	<path class="st8_chatting-1-47" d="M176.5,185.7c0,10.4-9.7,18.8-21.7,18.8S133,190.6,133,180.2s9.7-13.4,21.7-13.4S176.5,175.3,176.5,185.7z"/>
	<path class="st1_chatting-1-47" d="M154.8,206.5c-12.8,0-23.8-14.4-23.8-26.2c0-10.2,8-15.4,23.8-15.4c13.1,0,23.8,9.3,23.8,20.8&#10;&#9;&#9;S167.9,206.5,154.8,206.5z M154.8,168.9c-19.7,0-19.7,8.5-19.7,11.3c0,9.8,9.3,22.2,19.7,22.2c10.9,0,19.7-7.5,19.7-16.7&#10;&#9;&#9;S165.6,168.9,154.8,168.9z"/>
	<path class="st8_chatting-1-47" d="M303.1,180.2c0,10.4-9.7,24.2-21.7,24.2s-21.7-8.4-21.7-18.8s9.7-18.8,21.7-18.8S303.1,169.9,303.1,180.2z"/>
	<path class="st1_chatting-1-47" d="M281.4,206.5c-13.1,0-23.8-9.3-23.8-20.8s10.6-20.8,23.8-20.8c15.8,0,23.8,5.2,23.8,15.4&#10;&#9;&#9;C305.2,192.1,294.2,206.5,281.4,206.5z M281.4,168.9c-10.9,0-19.7,7.5-19.7,16.7s8.8,16.7,19.7,16.7c10.4,0,19.7-12.4,19.7-22.2&#10;&#9;&#9;C301.1,177.4,301.1,168.9,281.4,168.9z"/>
	<path class="st8_chatting-1-47" d="M284.2,131.4v49.8c1.1,36.2-27.3,66.4-63.5,67.5s-66.4-27.3-67.5-63.5c0-1.3,0-2.6,0-4v-45.6c0,0,7,0.1,18.5,0&#10;&#9;&#9;l5-19.1l7.2,19c15.4-0.2,35.5-0.6,57.2-1.6l0,0c2.6-8.8,6.6-25.8,6.6-25.8l18.1,24.5C271.9,132.2,278.1,131.8,284.2,131.4z"/>
	<path class="st1_chatting-1-47" d="M218.6,248.9c-37.3-0.1-67.6-30.4-67.6-67.8v-45.6c0-0.5,0.2-1.1,0.6-1.4c0.4-0.4,0.9-0.6,1.5-0.6&#10;&#9;&#9;c0.1,0,6.4,0.1,16.9,0l4.6-17.6c0.2-1.1,1.3-1.8,2.4-1.6c0.7,0.1,1.3,0.7,1.5,1.4l6.7,17.6c13-0.2,32.4-0.6,54.3-1.5&#10;&#9;&#9;c2.5-9,6.2-24.2,6.2-24.3c0.2-1.1,1.3-1.8,2.4-1.6c0.5,0.1,1,0.4,1.3,0.8l17.5,23.7c5.7-0.4,11.5-0.7,17.2-1.1&#10;&#9;&#9;c1.1-0.1,2.1,0.7,2.2,1.8c0,0.1,0,0.1,0,0.2v49.8C286.2,218.5,256,248.8,218.6,248.9z M155.2,137.6v43.6&#10;&#9;&#9;c0,35.1,28.4,63.5,63.5,63.5s63.5-28.4,63.5-63.5v-47.6c-5.4,0.4-10.8,0.7-16.2,1.1c-0.7,0-1.4-0.3-1.8-0.8l-15.6-21&#10;&#9;&#9;c-1.4,5.6-3.9,15.5-5.6,21.6c-0.2,0.9-1,1.5-1.9,1.6c-23.3,1-44,1.4-57.3,1.6c-0.9,0-1.6-0.5-1.9-1.3l-5-13l-3.3,12.8&#10;&#9;&#9;c-0.2,0.9-1.1,1.5-2,1.5C163.8,137.6,158.1,137.6,155.2,137.6z"/>
	<path class="st1_chatting-1-47" d="M171.8,157.1c-2.3-0.1-4-2-3.9-4.3c0.1-2.1,1.8-3.8,3.9-3.9l28.9-0.4h0.1c2.2,0,4.1,1.8,4.1,4.1&#10;&#9;&#9;c0,2.2-1.8,4.1-4.1,4.1L171.8,157.1z"/>
	<path class="st1_chatting-1-47" d="M268.2,156.6L268.2,156.6l-28.9-0.2c-2.3-0.1-4-2-3.9-4.3c0.1-2.1,1.8-3.8,3.9-3.9l0,0l28.9,0.2&#10;&#9;&#9;c2.3,0.1,4,2,3.9,4.3C271.9,154.8,270.3,156.5,268.2,156.6z"/>
	<path class="st3_chatting-1-47" d="M245.3,207.5H197c0,0,4.5,22.7,22.8,21.6C245.9,227.5,245.3,207.5,245.3,207.5z"/>
	<path class="st1_chatting-1-47" d="M218.4,231.2c-18.6,0-23.4-23-23.4-23.3c-0.1-0.6,0-1.2,0.4-1.7c0.4-0.5,1-0.8,1.6-0.8h48.3c1.1,0,2,0.9,2,2&#10;&#9;&#9;c0,0.2,0.4,22-27.4,23.7C219.4,231.2,218.9,231.2,218.4,231.2z M199.6,209.6c1.7,5.5,7,18.3,20,17.5c19.3-1.2,22.9-12.8,23.5-17.5&#10;&#9;&#9;H199.6z"/>
	<path class="st1_chatting-1-47" d="M253.6,366.1c-1.1,0-2-0.9-2-2v-24c0-0.4,0.1-0.8,0.4-1.2c0.1-0.2,13.6-19.8,2.8-39c-0.6-1-0.2-2.2,0.8-2.8&#10;&#9;&#9;c1-0.6,2.2-0.2,2.8,0.8c11.2,19.8-0.3,39.2-2.6,42.8v23.4C255.7,365.2,254.8,366.1,253.6,366.1&#10;&#9;&#9;C253.7,366.1,253.6,366.1,253.6,366.1z"/>
	<path class="st1_chatting-1-47" d="M226.7,199.8c-2,0-4-0.2-5.9-0.5c-1.1-0.2-1.8-1.3-1.6-2.4c0.2-1.1,1.3-1.8,2.4-1.6c0.1,0,5.2,0.9,8.8,0.1&#10;&#9;&#9;c0.3-1.9-2-8.2-5.1-14.2c-0.5-1-0.1-2.2,0.9-2.7c1-0.5,2.2-0.1,2.7,0.9c2.1,4.1,6.9,14.1,5.1,18c-0.4,1-1.3,1.7-2.3,1.9&#10;&#9;&#9;C230,199.6,228.4,199.8,226.7,199.8z"/>
	<ellipse class="st1_chatting-1-47" cx="261.4" cy="180.2" rx="5.8" ry="5.8"/>
	<ellipse class="st1_chatting-1-47" cx="201.9" cy="180.2" rx="5.8" ry="5.8"/>
	<path class="st1_chatting-1-47" d="M255.9,196.8c-11.4,0-20.6-9.2-20.6-20.6s9.2-20.6,20.6-20.6c11.4,0,20.6,9.2,20.6,20.6&#10;&#9;&#9;C276.5,187.5,267.3,196.7,255.9,196.8z M255.9,159.6c-9.1,0-16.5,7.4-16.5,16.5c0,9.1,7.4,16.5,16.5,16.5c9.1,0,16.5-7.4,16.5-16.5&#10;&#9;&#9;l0,0C272.4,167,265,159.7,255.9,159.6z"/>
	<path class="st1_chatting-1-47" d="M200.7,196.8c-11.4,0-20.6-9.2-20.6-20.6s9.2-20.6,20.6-20.6c11.4,0,20.6,9.2,20.6,20.6c0,0,0,0,0,0&#10;&#9;&#9;C221.3,187.5,212.1,196.7,200.7,196.8z M200.7,159.6c-9.1,0-16.5,7.4-16.5,16.5c0,9.1,7.4,16.5,16.5,16.5c9.1,0,16.5-7.4,16.5-16.5&#10;&#9;&#9;C217.2,167,209.8,159.7,200.7,159.6z"/>
	<path class="st1_chatting-1-47" d="M237.3,178.2h-18.1c-1.1,0-2-0.9-2-2s0.9-2,2-2h18.1c1.1,0,2,0.9,2,2S238.5,178.2,237.3,178.2z"/>
	<path class="st1_chatting-1-47" d="M274.2,175.3c-1.1,0.1-2-0.8-2.1-1.9c0-0.7,0.3-1.3,0.8-1.7l10.2-8.2c0.9-0.7,2.2-0.6,2.9,0.3&#10;&#9;&#9;c0.7,0.9,0.6,2.2-0.3,2.9l-10.2,8.2C275.1,175.2,274.7,175.3,274.2,175.3z"/>
	<path class="st1_chatting-1-47" d="M182.1,178.2c-0.2,0-0.4,0-0.7-0.1l-27.4-9.3c-1.1-0.4-1.6-1.5-1.3-2.6c0.4-1.1,1.5-1.6,2.6-1.3l27.4,9.3&#10;&#9;&#9;c1.1,0.2,1.9,1.2,1.7,2.3S183.3,178.4,182.1,178.2L182.1,178.2z"/>
	<path class="st7_chatting-1-47 targetColor" d="M185.2,289.8c1.2,11.7,3.2,27.9,3.2,27.9l8.9-20.5c0,0,11.3-7.3,19.8-1.8c4.6,3,4.1,17.6,4.1,17.6&#10;&#9;&#9;c-11.2,29-17,58.5-40.8,55.9c-21,0-27.1-78.5-27.2-79.2" style="fill: rgb(104, 225, 253);"/>
	<path class="st1_chatting-1-47" d="M183.1,371.1c-1,0-2-0.1-3-0.2c-9.7-0.1-17.3-13-23-39.6c-2.8-13.6-4.8-27.4-6-41.3c-0.1-1.1,0.7-2.1,1.8-2.3&#10;&#9;&#9;c1.1-0.1,2.1,0.7,2.2,1.7v0.2c3.1,37.1,12.3,77.1,25.1,77.1h0.2c18.4,2,25.1-16.8,33.6-40.7c1.6-4.5,3.2-9,5-13.6&#10;&#9;&#9;c0.1-5.5-0.8-13.9-3.2-15.5c-6.3-4.1-14.9,0.2-17,1.5l-8.6,19.9c-0.3,1-1.5,1.6-2.5,1.3c-0.8-0.3-1.4-1-1.4-1.8&#10;&#9;&#9;c0-0.2-2-16.3-3.2-27.9c-0.1-1.1,0.6-2.1,1.7-2.2c0,0,0,0,0.1,0c1.1-0.1,2.1,0.7,2.2,1.8c0.7,6.5,1.6,14.6,2.3,20.3l5.9-13.6&#10;&#9;&#9;c0.2-0.4,0.4-0.7,0.8-0.9c0.5-0.3,12.5-8,22-1.8c5.3,3.5,5.1,16.8,5,19.4c0,0.2-0.1,0.5-0.1,0.7c-1.8,4.6-3.5,9.3-5.1,13.9&#10;&#9;&#9;C210,350,202.4,371.1,183.1,371.1z"/>
	<path class="st8_chatting-1-47" d="M221.1,313l4.2-9.8c0,0,12.7,3.5,16.2-2.8s-2.9-29.5-2.9-29.5s17.7,0.1,17.4-5.1s-9.8-5.3-17.1-4.4&#10;&#9;&#9;s-20.3,1.1-24.8,4s-16.9,31.7-16.9,31.7S203.8,309.5,221.1,313z"/>
	<path class="st1_chatting-1-47" d="M221.1,315c-0.1,0-0.3,0-0.4,0c-18-3.6-25-16.4-25.3-16.9c-0.3-0.5-0.3-1.2-0.1-1.8&#10;&#9;&#9;c2.1-4.9,12.9-29.7,17.7-32.7c3.8-2.4,12-3,19.3-3.6c2.3-0.2,4.5-0.4,6.4-0.6c5.8-0.7,13.5-0.9,17.2,2.1c1.3,1,2.1,2.5,2.2,4.2&#10;&#9;&#9;c0.1,1.2-0.4,2.4-1.2,3.3c-2.9,3.1-11.1,3.8-15.6,4c1.6,6.5,5.2,22.7,2,28.5c-3.4,6.1-12.8,5-16.8,4.2l-3.6,8.2&#10;&#9;&#9;C222.6,314.6,221.9,315,221.1,315z M199.5,297c4.9,6.9,12.1,11.8,20.4,13.7l3.6-8.2c0.4-0.9,1.4-1.4,2.4-1.1&#10;&#9;&#9;c2.9,0.8,11.7,2.1,13.9-1.9s-0.7-19.3-3-28c-0.3-1.1,0.3-2.2,1.3-2.5c0.2-0.1,0.4-0.1,0.7-0.1c0.1,0,0.1,0,0.2,0&#10;&#9;&#9;c5.2,0,13.2-0.8,15-2.7c0.1-0.1,0.1-0.2,0.1-0.2c0-0.5-0.3-1-0.7-1.3c-1.9-1.6-7.2-2-14.1-1.2c-1.9,0.2-4.1,0.4-6.5,0.6&#10;&#9;&#9;c-6.5,0.5-14.5,1.2-17.5,3C212.8,268.6,205.4,283.3,199.5,297z"/>
	<polygon class="st3_chatting-1-47" points="273,238.2 310.8,238.2 281.9,296.2 244.1,296.2 &#9;"/>
	<path class="st1_chatting-1-47" d="M281.9,298.2h-37.8c-1.1,0-2-0.8-2.1-1.9c0-0.4,0.1-0.7,0.2-1l28.9-58c0.3-0.7,1.1-1.1,1.8-1.1h37.8&#10;&#9;&#9;c1.1,0,2,0.8,2.1,1.9c0,0.4-0.1,0.8-0.3,1.1l-29,58C283.3,297.8,282.6,298.3,281.9,298.2z M247.4,294.2h33.2l26.9-54h-33.3&#10;&#9;&#9;L247.4,294.2z"/>
	<path class="st8_chatting-1-47" d="M318.1,264.3c0-3.6-2.3-12.3-5.4-15.9s-4.4-5.1-4.4-5.1l-4.9,11.9c0,0-30.7,1.5-33.6,3.7&#10;&#9;&#9;c-2.4,1.9-2.5,6.2,1.6,7.2c0,0-3.1,0.5-3.4,2c-0.4,1.5,0.4,3.2,2,3.6c0.2,0.1,0.4,0.1,0.7,0.1c0,0-5.5,2.6-0.3,6.2c0,0-4,3.4,0.5,6&#10;&#9;&#9;s17.4,2.4,17.4,2.4l-3.5,9h28.8C313.4,295.3,318.1,270.2,318.1,264.3z"/>
	<path class="st1_chatting-1-47" d="M313.4,297.3h-28.8c-1.1,0-2-0.8-2.1-1.9c0-0.3,0-0.6,0.2-0.8l2.4-6.2c-4.3-0.1-11.9-0.5-15.5-2.6&#10;&#9;&#9;c-2.4-1.4-3.1-3.1-3.2-4.3c-0.1-1.1,0.2-2.2,0.8-3.2c-1-1-1.5-2.3-1.5-3.7c0.1-0.9,0.4-1.7,1-2.4l-0.2-0.3&#10;&#9;&#9;c-0.9-1.2-1.2-2.7-0.8-4.2c0.2-0.8,0.6-1.5,1.2-2c-0.4-0.6-0.8-1.3-0.9-2.1c-0.5-2.4,0.4-4.8,2.3-6.3c2.9-2.3,23.4-3.6,33.5-4.1&#10;&#9;&#9;l4.4-10.7c0.3-0.7,0.9-1.1,1.6-1.2c0.7-0.1,1.4,0.2,1.9,0.7c0,0,1.3,1.6,4.3,5.1c3.6,4.2,5.9,13.5,5.9,17.2l0,0&#10;&#9;&#9;c0.1,6.1-4.5,30.3-4.7,31.4C315.3,296.6,314.4,297.3,313.4,297.3z M287.7,293.2h24.1c1-5.6,4.4-24,4.3-28.9l0,0&#10;&#9;&#9;c0-3.5-2.3-11.5-4.9-14.6l-2.2-2.6l-3.6,8.8c-0.3,0.7-1,1.2-1.8,1.3c-14.4,0.7-30.4,2.1-32.5,3.3c-0.6,0.5-0.9,1.4-0.8,2.2&#10;&#9;&#9;c0.2,0.7,0.9,1.3,1.6,1.4c1.1,0,2,1,1.9,2.1c0,1.1-1,2-2.1,1.9c-0.6,0.1-1.2,0.3-1.8,0.6c0,0.2,0,0.5,0.1,0.7&#10;&#9;&#9;c0.2,0.2,0.5,0.3,0.8,0.4c0.9,0.1,1.6,0.8,1.8,1.7c0.2,0.9-0.3,1.8-1.1,2.2c-0.6,0.3-1.4,1-1.4,1.2c0,0.1,0.2,0.6,1.4,1.4&#10;&#9;&#9;c0.9,0.6,1.2,1.8,0.6,2.8c-0.1,0.2-0.3,0.3-0.4,0.5c-0.5,0.4-0.8,0.9-0.9,1.5c0,0.3,0.5,0.7,1.1,1.1c3.3,1.9,12.9,2.2,16.4,2.1&#10;&#9;&#9;c0.7,0,1.3,0.3,1.7,0.9c0.4,0.6,0.5,1.3,0.2,1.9L287.7,293.2z"/>
	<path class="st1_chatting-1-47" d="M266.2,329c-1.1,0-2-0.8-2.1-1.9c0-0.4,0.1-0.8,0.3-1.1l10-17c0.6-1,1.8-1.3,2.8-0.7s1.3,1.8,0.7,2.8l-10,17&#10;&#9;&#9;C267.6,328.6,266.9,329,266.2,329z"/>
	<circle class="st1_chatting-1-47" cx="279.3" cy="247.1" r="3.1"/>
	<path class="st5_chatting-1-47" d="M112,355.6c0,0,39.4-9.1,60,13.5s22.9,54.4,22.9,54.4h-74.8"/>
	<path class="st1_chatting-1-47" d="M194.9,425.5h-74.8c-1.1,0-2-0.9-2-2s0.9-2,2-2h72.5c-0.9-7.5-5.2-32.6-22.1-51c-19.6-21.4-57.7-13-58.1-12.9&#10;&#9;&#9;c-1.1,0.3-2.2-0.4-2.5-1.5c-0.3-1.1,0.4-2.2,1.5-2.5c7.5-1.5,15.2-2.1,22.8-1.8c16.8,0.8,30.4,6.2,39.2,15.8&#10;&#9;&#9;c20.9,22.8,23.3,54.3,23.4,55.6c0.1,1.1-0.8,2.1-1.9,2.2C194.9,425.5,194.9,425.5,194.9,425.5L194.9,425.5z"/>
	<path class="st1_chatting-1-47" d="M123.2,354.4c-1,0-1.8-0.7-2-1.6L110,299.4c-0.2-1.1,0.5-2.2,1.6-2.4c1.1-0.2,2.2,0.5,2.4,1.6l11.3,53.4&#10;&#9;&#9;c0.2,1.1-0.4,2.1-1.5,2.4c0,0,0,0-0.1,0C123.5,354.4,123.4,354.4,123.2,354.4z"/>
</g>
</svg>